<svg xmlns="http://www.w3.org/2000/svg" viewBox="0 0 507.74 116.35"><defs><style>.a{fill:#221f1f;}.b{fill:#fff;}</style></defs><title>pioneers</title><rect class="a" width="507.74" height="116.35" rx="21.67" ry="21.67"/><path class="b" d="M861.92,494.49H825.31a9.11,9.11,0,0,1-9.1-9.1V430.44a9.11,9.11,0,0,1,9.1-9.1h36.61a9.11,9.11,0,0,1,9.1,9.1v54.95A9.11,9.11,0,0,1,861.92,494.49Zm-31.51-14.2h26.41V435.54H830.41Z" transform="translate(-706.22 -399.74)"/><path class="b" d="M1184.26,494.49h-42.11v-14.2h37V478.2L1143.72,447a9.07,9.07,0,0,1-3.16-6.9v-9.64a9.11,9.11,0,0,1,9.1-9.1h42.69v14.2h-37.59v2.24L1190.2,469a9.08,9.08,0,0,1,3.16,6.9v9.49A9.11,9.11,0,0,1,1184.26,494.49Z" transform="translate(-706.22 -399.74)"/><path class="b" d="M1000.91,494.49H956.32a9.11,9.11,0,0,1-9.1-9.1V430.44a9.11,9.11,0,0,1,9.1-9.1h36.61a9.11,9.11,0,0,1,9.1,9.1v26.33a9.09,9.09,0,0,1-6.21,8.63l-34.4,11.53v3.35h39.49Zm-39.49-58.95V462l26.41-8.85V435.54Z" transform="translate(-706.22 -399.74)"/><path class="b" d="M937,494.49h-14.2V435.55H895.41v58.95h-14.2v-64a9.11,9.11,0,0,1,9.1-9.1h37.61a9.11,9.11,0,0,1,9.1,9.1Z" transform="translate(-706.22 -399.74)"/><path class="b" d="M1134.45,494.49l-20.71-24.86,11-4a10.09,10.09,0,0,0,6.78-9.54V430.44a9.11,9.11,0,0,0-9.1-9.1h-36.61a9.11,9.11,0,0,0-9.1,9.1v64h14.2V435.54h26.41v17.7l-15.21,5.52a9.1,9.1,0,0,0-3.88,14.38L1116,494.49Z" transform="translate(-706.22 -399.74)"/><path class="b" d="M742,494.49h-14.2v-64a9.11,9.11,0,0,1,9.1-9.1h36.61a9.11,9.11,0,0,1,9.1,9.1v32.67a9.09,9.09,0,0,1-6.21,8.63L742,483.27Zm0-58.95V468.3l26.41-8.85v-23.9Z" transform="translate(-706.22 -399.74)"/><path class="b" d="M1065.53,494.49h-44.59a9.11,9.11,0,0,1-9.1-9.1V430.44a9.11,9.11,0,0,1,9.1-9.1h36.61a9.11,9.11,0,0,1,9.1,9.1v26.33a9.09,9.09,0,0,1-6.21,8.63L1026,476.94v3.35h39.49ZM1026,435.54V462l26.41-8.85V435.54Z" transform="translate(-706.22 -399.74)"/><rect class="b" x="85.47" y="21.61" width="14.33" height="73.15"/></svg>