<?xml version="1.0" encoding="utf-8"?>
<!-- Generator: Adobe Illustrator 22.0.1, SVG Export Plug-In . SVG Version: 6.00 Build 0)  -->
<svg version="1.1" id="Ebene_2" xmlns="http://www.w3.org/2000/svg" xmlns:xlink="http://www.w3.org/1999/xlink" x="0px" y="0px"
	 viewBox="0 0 174.9 28" style="enable-background:new 0 0 174.9 28;" xml:space="preserve">
<style type="text/css">
	.st0{fill:#575656;}
	.st1{fill:none;}
	.st2{fill:#EB5B36;}
	.st3{fill:#FFFFFF;}
</style>
<g>
	<path class="st0" d="M15,2.6c-0.9-0.9-2.1-1.5-3.3-1.8c-1.2-0.3-2.9-0.5-5-0.5H0v27.7h4.4V17.4h1.2c2.3,0,4.2-0.2,5.5-0.5
		c4.2-1,6.3-3.8,6.3-8.4C17.5,6,16.6,4,15,2.6z M13,8.9c0,1.7-0.6,3-1.7,3.8c-0.8,0.6-2.8,1-5.7,1H4.4v-10h2c2.7,0,4.5,0.5,5.4,1.4
		C12.6,5.8,13,7.1,13,8.9z"/>
	<path class="st0" d="M39,15.2c1.8-1.4,2.7-3.7,2.7-6.7c0-2.5-0.8-4.5-2.4-6c-0.9-0.9-2.1-1.5-3.3-1.8c-1.2-0.3-2.9-0.5-5-0.5h-6.7
		v27.7h4.4V17.4h1.2c0.9,0,1.5,0,1.9,0l8.5,11.4l3.3-2.3l-7.4-9.7C37.2,16.4,38.2,15.9,39,15.2z M37.3,8.8c0,1.7-0.6,3-1.7,3.8
		c-0.8,0.6-2.8,1-5.7,1h-1.3v-10h2c2.7,0,4.5,0.5,5.4,1.4C36.8,5.8,37.3,7.1,37.3,8.8z"/>
	<path class="st0" d="M131.4,0.4l-0.1-0.2h-4.7l-9.1,27.7h4.5l2.3-7h9.2l2.4,7h4.5L131.4,0.4z M132.6,17.3h-7.1L129,5.1L132.6,17.3z
		"/>
	<path class="st0" d="M106.2,0.2l-7.2,19.7L91.7,0.4l-0.1-0.2h-4.9l-1.3,27.7h4.1l0.7-19.5c0-0.6,0-1.1,0-1.7c0-0.1,0-0.2,0-0.2
		l6.9,18.4l0.1,0.2h3.4l6.9-18.5c0,0.1,0,0.2,0,0.2c0,0.6,0,1.2,0,1.7l0.7,19.5h4.1l-1.3-27.7H106.2z"/>
	<path class="st0" d="M76.7,14.9c-0.8-0.7-1.5-1.3-2.2-1.7c-0.7-0.4-1.7-1-3.1-1.8C70,10.7,68.9,10,68,9.3c-0.8-0.7-1.2-1.5-1.2-2.4
		c0-1,0.3-1.7,1-2.3c0.7-0.6,1.8-0.9,3.3-0.9c1.6,0,3.4,0.4,5.4,1.1l0.2,0.1L78,1.1L77.8,1c-2.4-0.9-4.7-1.3-7-1.3
		c-2.3,0-4.2,0.6-5.8,1.9c-1.6,1.3-2.4,3.1-2.4,5.4c0,2.3,0.7,4,2.1,5.2c0.7,0.7,1.4,1.2,1.9,1.5c0.6,0.3,1.6,0.9,3.2,1.7
		c1.5,0.8,2.8,1.6,3.8,2.4c0.9,0.8,1.4,1.7,1.4,2.9s-0.4,2-1.3,2.8c-0.8,0.7-2.1,1.1-3.8,1.1c-1.7,0-3.9-0.5-6.5-1.6L63,22.8
		l-1.2,3.9l0.2,0.1c1,0.5,2.3,0.9,3.8,1.2c1.6,0.3,3.1,0.5,4.5,0.5c2.6,0,4.8-0.7,6.4-2.2c1.6-1.5,2.4-3.4,2.4-5.7
		S78.3,16.4,76.7,14.9L76.7,14.9z"/>
	<rect x="50.5" y="0.2" class="st0" width="4.4" height="27.7"/>
</g>
<g>
	<path class="st1" d="M160.8,4.3c-5.4,0-9.8,4.4-9.8,9.8c0,5.4,4.4,9.8,9.8,9.8c5.4,0,9.8-4.4,9.8-9.8
		C170.6,8.6,166.2,4.3,160.8,4.3z M160.8,21c-3.8,0-6.9-3-6.9-6.8c0-0.1,0-0.1,0-0.2c0-0.1,0-0.1,0-0.2c0.1-3.7,3.1-6.7,6.8-6.8
		c0.1,0,0.1,0,0.2,0c0.1,0,0.1,0,0.2,0c3.8,0.1,6.8,3.2,6.8,6.9C167.7,17.9,164.6,21,160.8,21z"/>
	<path class="st2" d="M146.9,0.2v27.7h27.7V0.2H146.9z M160.8,23.9c-5.4,0-9.8-4.4-9.8-9.8c0-5.4,4.4-9.8,9.8-9.8
		c5.4,0,9.8,4.4,9.8,9.8C170.6,19.5,166.2,23.9,160.8,23.9z"/>
	<path class="st3" d="M160.8,7.1c-0.1,0-0.1,0-0.2,0h0.3C160.9,7.1,160.8,7.1,160.8,7.1z"/>
	<path class="st3" d="M153.8,14.1c0,0.1,0,0.1,0,0.2v-0.3C153.8,13.9,153.8,14,153.8,14.1z"/>
	<path class="st2" d="M161,7.1h-0.3c-3.7,0.1-6.7,3.1-6.8,6.8v0.3c0.1,3.8,3.2,6.8,6.9,6.8c3.8,0,7-3.1,7-7
		C167.7,10.3,164.7,7.2,161,7.1z M160.8,17.7c-2,0-3.6-1.6-3.6-3.6c0-2,1.6-3.6,3.6-3.6c2,0,3.6,1.6,3.6,3.6
		C164.4,16.1,162.8,17.7,160.8,17.7z"/>
</g>
</svg>
