<?xml version="1.0" encoding="utf-8"?>
<!-- Generator: Adobe Illustrator 16.0.0, SVG Export Plug-In . SVG Version: 6.00 Build 0)  -->
<!DOCTYPE svg PUBLIC "-//W3C//DTD SVG 1.1//EN" "http://www.w3.org/Graphics/SVG/1.1/DTD/svg11.dtd">
<svg version="1.1" id="Ebene_1" xmlns="http://www.w3.org/2000/svg" xmlns:xlink="http://www.w3.org/1999/xlink" x="0px" y="0px"
	 width="151.007px" height="55.822px" viewBox="0 0 151.007 55.822" enable-background="new 0 0 151.007 55.822"
	 xml:space="preserve">
<g>
	<defs>
		<path id="SVGID_1_" d="M61.742,0.004V36.78h-9.088v-2.545h5.079V2.55h-5.079V0.004H61.742z"/>
	</defs>
	<use xlink:href="#SVGID_1_"  overflow="visible" fill-rule="evenodd" clip-rule="evenodd" fill="#FFFFFF"/>
	<clipPath id="SVGID_2_">
		<use xlink:href="#SVGID_1_"  overflow="visible"/>
	</clipPath>
	<g clip-path="url(#SVGID_2_)">
		<defs>
			<rect id="SVGID_3_" x="-59" y="-17.179" width="1374" height="5459"/>
		</defs>
		<use xlink:href="#SVGID_3_"  overflow="visible" fill="#FFFFFF"/>
		<clipPath id="SVGID_4_">
			<use xlink:href="#SVGID_3_"  overflow="visible"/>
		</clipPath>
		<rect x="47.653" y="-4.996" clip-path="url(#SVGID_4_)" fill="#FFFFFF" width="19.088" height="46.776"/>
	</g>
</g>
<g>
	<defs>
		<polygon id="SVGID_5_" points="0,0.004 0,36.78 9.088,36.78 9.088,34.235 4.009,34.235 4.009,2.55 9.088,2.55 9.088,0.004 		"/>
	</defs>
	<use xlink:href="#SVGID_5_"  overflow="visible" fill-rule="evenodd" clip-rule="evenodd" fill="#FFFFFF"/>
	<clipPath id="SVGID_6_">
		<use xlink:href="#SVGID_5_"  overflow="visible"/>
	</clipPath>
	<g clip-path="url(#SVGID_6_)">
		<defs>
			<rect id="SVGID_7_" x="-59" y="-17.179" width="1374" height="5459"/>
		</defs>
		<use xlink:href="#SVGID_7_"  overflow="visible" fill="#FFFFFF"/>
		<clipPath id="SVGID_8_">
			<use xlink:href="#SVGID_7_"  overflow="visible"/>
		</clipPath>
		<rect x="-5" y="-4.996" clip-path="url(#SVGID_8_)" fill="#FFFFFF" width="19.088" height="46.776"/>
	</g>
</g>
<g>
	<defs>
		<path id="SVGID_9_" d="M35.305,39.763c0.715,0.114,1.31,0.271,1.782,0.469c0.473,0.2,0.844,0.422,1.117,0.664
			c0.272,0.242,0.487,0.491,0.645,0.747c0.157,0.257,0.307,0.499,0.451,0.728c-0.029,0.113-0.166,0.1-0.408-0.043
			c-0.244-0.143-0.48-0.285-0.709-0.428c-0.63-0.398-1.389-0.642-2.276-0.727c-0.888-0.086-1.711-0.035-2.47,0.15
			c-0.759,0.185-1.368,0.504-1.825,0.961c-0.458,0.455-0.573,1.012-0.344,1.666c0.229,0.656,0.637,1.226,1.224,1.709
			c0.586,0.486,1.238,0.92,1.954,1.305c0.716,0.384,1.432,0.734,2.148,1.047c0.716,0.314,1.303,0.627,1.761,0.939
			c0.573-0.312,1.059-0.576,1.46-0.791c0.401-0.213,0.758-0.412,1.074-0.598c0.315-0.185,0.637-0.355,0.967-0.513
			c0.329-0.156,0.708-0.334,1.138-0.534c0.057-0.027,0.107-0.043,0.15-0.043c0.043,0,0.043,0.036,0,0.107
			c-0.042,0.07-0.157,0.186-0.343,0.342c-0.187,0.156-0.48,0.378-0.88,0.662c-0.201,0.143-0.573,0.385-1.117,0.727
			s-1.131,0.713-1.761,1.111c0.344,0.314,0.615,0.641,0.816,0.982c0.172,0.314,0.293,0.649,0.365,1.004
			c0.071,0.357,0.007,0.721-0.193,1.09c-0.573,0.912-1.217,1.625-1.933,2.138c-0.716,0.513-1.375,0.869-1.976,1.067
			c-0.401,0.144-0.845,0.158-1.332,0.045c-0.487-0.115-0.874-0.344-1.16-0.686c-0.315-0.455-0.394-0.918-0.236-1.389
			c0.157-0.471,0.422-0.926,0.795-1.367c0.372-0.441,0.801-0.861,1.289-1.261c0.486-0.397,0.916-0.754,1.289-1.068
			c-0.258-0.284-0.759-0.634-1.503-1.047c-0.745-0.413-1.511-0.869-2.298-1.368c-0.788-0.498-1.497-1.033-2.126-1.603
			s-0.973-1.14-1.031-1.709c-0.114-0.626-0.036-1.232,0.236-1.816c0.272-0.584,0.672-1.097,1.203-1.538
			c0.529-0.441,1.145-0.77,1.847-0.984C33.794,39.698,34.532,39.649,35.305,39.763 M34.918,54.421c0.315,0.143,0.672,0.143,1.074,0
			c0.401-0.143,0.78-0.35,1.138-0.62c0.358-0.271,0.673-0.569,0.945-0.897c0.271-0.326,0.451-0.619,0.537-0.875
			c0.086-0.229,0.007-0.478-0.236-0.748c-0.244-0.271-0.494-0.492-0.751-0.662c-0.315,0.228-0.673,0.52-1.074,0.875
			c-0.401,0.357-0.752,0.721-1.052,1.091c-0.301,0.37-0.523,0.726-0.666,1.067C34.689,53.993,34.718,54.25,34.918,54.421"/>
	</defs>
	<use xlink:href="#SVGID_9_"  overflow="visible" fill-rule="evenodd" clip-rule="evenodd" fill="#FFFFFF"/>
	<clipPath id="SVGID_10_">
		<use xlink:href="#SVGID_9_"  overflow="visible"/>
	</clipPath>
	<g clip-path="url(#SVGID_10_)">
		<defs>
			<rect id="SVGID_11_" x="-59" y="-17.179" width="1374" height="5459"/>
		</defs>
		<use xlink:href="#SVGID_11_"  overflow="visible" fill="#FFFFFF"/>
		<clipPath id="SVGID_12_">
			<use xlink:href="#SVGID_11_"  overflow="visible"/>
		</clipPath>
		<rect x="24.756" y="34.702" clip-path="url(#SVGID_12_)" fill="#FFFFFF" width="23.419" height="26.119"/>
	</g>
</g>
<g>
	<defs>
		<path id="SVGID_13_" d="M44.54,39.976c0.143,1.368,0.243,2.871,0.301,4.51c0.057,1.639,0.157,3.354,0.301,5.149
			c0.114,0.912,0.229,1.624,0.343,2.138c0.114,0.512,0.2,0.996,0.258,1.452c-0.458,0.085-0.816,0.078-1.074-0.022
			c-0.258-0.098-0.501-0.219-0.73-0.362c-0.058-0.455-0.122-1.211-0.193-2.265c-0.072-1.055-0.144-2.201-0.215-3.44
			c-0.072-1.239-0.144-2.442-0.215-3.612c-0.072-1.166-0.136-2.094-0.193-2.777c0.114-0.057,0.208-0.143,0.279-0.256
			c0.071-0.113,0.15-0.215,0.236-0.299c0.086-0.086,0.2-0.156,0.344-0.215C44.124,39.92,44.31,39.92,44.54,39.976"/>
	</defs>
	<use xlink:href="#SVGID_13_"  overflow="visible" fill-rule="evenodd" clip-rule="evenodd" fill="#FFFFFF"/>
	<clipPath id="SVGID_14_">
		<use xlink:href="#SVGID_13_"  overflow="visible"/>
	</clipPath>
	<g clip-path="url(#SVGID_14_)">
		<defs>
			<rect id="SVGID_15_" x="-59" y="-17.179" width="1374" height="5459"/>
		</defs>
		<use xlink:href="#SVGID_15_"  overflow="visible" fill="#FFFFFF"/>
		<clipPath id="SVGID_16_">
			<use xlink:href="#SVGID_15_"  overflow="visible"/>
		</clipPath>
		<rect x="38.122" y="34.934" clip-path="url(#SVGID_16_)" fill="#FFFFFF" width="12.62" height="23.351"/>
	</g>
</g>
<g>
	<defs>
		<path id="SVGID_17_" d="M54.547,40.702c0.028,0.172-0.107,0.343-0.408,0.514c-0.301,0.17-0.681,0.42-1.138,0.748
			c-0.458,0.327-0.959,0.762-1.503,1.303c-0.544,0.542-1.031,1.254-1.46,2.137c-0.458,0.969-0.788,1.811-0.988,2.522
			c-0.201,0.712-0.158,1.552,0.129,2.521c0.086,0.199,0.208,0.379,0.365,0.535c0.157,0.156,0.393,0.25,0.708,0.277
			c0.63-0.113,1.188-0.27,1.675-0.471c0.486-0.198,0.945-0.44,1.375-0.727c0.43-0.283,0.844-0.591,1.246-0.919
			c0.401-0.327,0.816-0.661,1.246-1.004c0.629-0.598,1.152-1.118,1.568-1.56c0.415-0.441,0.751-0.812,1.009-1.111
			s0.479-0.52,0.666-0.663c0.186-0.142,0.379-0.185,0.58-0.128c-0.115,0.257-0.437,0.798-0.966,1.624
			c-0.53,0.827-1.218,1.703-2.062,2.629c-0.845,0.927-1.825,1.794-2.942,2.606c-1.117,0.812-2.32,1.318-3.608,1.518
			c-0.516-0.027-0.938-0.086-1.267-0.171c-0.33-0.086-0.638-0.429-0.924-1.026c-0.343-0.711-0.472-1.574-0.387-2.584
			c0.086-1.012,0.301-2.017,0.645-3.015c0.344-0.996,0.773-1.923,1.289-2.776c0.516-0.855,1.016-1.481,1.503-1.881
			c0.687-0.484,1.324-0.783,1.911-0.898C53.395,40.589,53.974,40.589,54.547,40.702"/>
	</defs>
	<use xlink:href="#SVGID_17_"  overflow="visible" fill-rule="evenodd" clip-rule="evenodd" fill="#FFFFFF"/>
	<clipPath id="SVGID_18_">
		<use xlink:href="#SVGID_17_"  overflow="visible"/>
	</clipPath>
	<g clip-path="url(#SVGID_18_)">
		<defs>
			<rect id="SVGID_19_" x="-59" y="-17.179" width="1374" height="5459"/>
		</defs>
		<use xlink:href="#SVGID_19_"  overflow="visible" fill="#FFFFFF"/>
		<clipPath id="SVGID_20_">
			<use xlink:href="#SVGID_19_"  overflow="visible"/>
		</clipPath>
		<rect x="42.435" y="35.618" clip-path="url(#SVGID_20_)" fill="#FFFFFF" width="22.181" height="22.436"/>
	</g>
</g>
<g>
	<defs>
		<path id="SVGID_21_" d="M39.702,3.11c0-0.158,0.08-0.263,0.241-0.311c0.16-0.048,0.361-0.032,0.602,0.048s0.473,0.2,0.698,0.358
			c0.224,0.16,0.417,0.352,0.578,0.574c0.031,0.863,0.104,2.068,0.216,3.617c0.112,1.549,0.248,3.25,0.409,5.1
			c0.16,1.853,0.329,3.754,0.505,5.701c0.176,1.947,0.329,3.744,0.458,5.388c0.128,1.646,0.224,3.034,0.289,4.167
			s0.064,1.796,0,1.986c-0.161-0.062-0.312-0.086-0.457-0.07s-0.297,0.023-0.458,0.023c-0.161,0-0.321-0.047-0.481-0.144
			s-0.321-0.304-0.481-0.623c-0.033-3.001-0.096-5.58-0.193-7.735c-0.096-2.154-0.233-4.166-0.409-6.035
			c-0.177-1.867-0.394-3.734-0.65-5.603C40.311,7.685,40.022,5.538,39.702,3.11 M45.189,34.481c0.128,0.256,0.2,0.455,0.217,0.6
			c0.016,0.144-0.008,0.287-0.072,0.431c-0.065,0.144-0.161,0.296-0.289,0.455c-0.128,0.16-0.257,0.367-0.385,0.623
			c-0.674,0.19-1.196,0.231-1.564,0.119c-0.369-0.112-0.65-0.327-0.842-0.646c-0.065-0.479-0.008-0.854,0.168-1.127
			c0.176-0.271,0.409-0.463,0.698-0.574c0.289-0.111,0.618-0.151,0.987-0.119C44.475,34.274,44.835,34.354,45.189,34.481"/>
	</defs>
	<use xlink:href="#SVGID_21_"  overflow="visible" fill-rule="evenodd" clip-rule="evenodd" fill="#FFFFFF"/>
	<clipPath id="SVGID_22_">
		<use xlink:href="#SVGID_21_"  overflow="visible"/>
	</clipPath>
	<g clip-path="url(#SVGID_22_)">
		<defs>
			<rect id="SVGID_23_" x="-59" y="-17.179" width="1374" height="5459"/>
		</defs>
		<use xlink:href="#SVGID_23_"  overflow="visible" fill="#FFFFFF"/>
		<clipPath id="SVGID_24_">
			<use xlink:href="#SVGID_23_"  overflow="visible"/>
		</clipPath>
		<rect x="34.702" y="-2.228" clip-path="url(#SVGID_24_)" fill="#FFFFFF" width="15.708" height="43.998"/>
	</g>
</g>
<g>
	<path fill="#FFFFFF" d="M120.68,36.64v-1.043h-4.296v-2.846h3.564v-1.043h-3.564v-2.582h4.271v-1.042h-5.447v8.556H120.68z
		 M111.873,30.664c0,1.093-0.685,1.633-1.886,1.633h-1.669v-3.206h1.645C110.972,29.091,111.873,29.511,111.873,30.664
		 M113.396,36.64l-2.316-3.443c1.284-0.312,1.979-1.296,1.979-2.532c0-0.853-0.336-1.573-0.923-2.017
		c-0.504-0.396-1.152-0.563-1.922-0.563h-3.083v8.556h1.187v-3.336h1.525l2.209,3.336H113.396z M105.365,29.114v-1.03h-6.131v1.03
		h2.473v7.525h1.198v-7.525H105.365z M97.468,36.64v-8.556h-1.104v6.448H96.33l-4.07-6.448h-1.162v8.544h1.113v-6.543h0.024
		l4.106,6.555H97.468z M88.97,36.64v-1.043h-4.297v-2.846h3.565v-1.043h-3.565v-2.582h4.273v-1.042H83.5v8.556H88.97z
		 M81.482,34.251v-0.298h-1.14v0.179c0,1.045-0.78,1.621-1.944,1.621c-1.237,0-2.09-0.721-2.09-1.932v-2.906
		c0-1.26,0.9-1.944,2.041-1.944c1.165,0,2.006,0.577,2.006,1.621v0.167h1.127V30.46c0-1.573-1.38-2.532-3.108-2.532
		c-1.886,0-3.265,1.235-3.265,3.071v2.895c0,1.979,1.523,2.891,3.324,2.891C79.958,36.784,81.482,35.97,81.482,34.251"/>
	<path fill="#FFFFFF" d="M151.007,22.67v-8.556h-1.102v6.447h-0.036l-4.07-6.447h-1.163v8.544h1.115v-6.542h0.023l4.107,6.554
		H151.007z M141.324,16.921v2.906c0,1.283-0.912,1.944-2.064,1.944c-1.236,0-2.09-0.708-2.09-1.921v-2.833
		c0-1.309,0.9-2.005,2.041-2.005C140.484,15.013,141.324,15.721,141.324,16.921 M142.523,19.743v-2.798
		c0-1.885-1.439-2.987-3.288-2.987c-1.788,0-3.264,1.162-3.264,3.119v2.846c0,1.896,1.463,2.891,3.264,2.891
		C140.988,22.813,142.523,21.699,142.523,19.743 M134.037,22.67v-1.042h-1.836v-6.471h1.836v-1.043h-4.858v1.043h1.836v6.471h-1.836
		v1.042H134.037z M127.591,15.146v-1.031h-6.131v1.031h2.473v7.524h1.198v-7.524H127.591z M118.953,19.419h-2.664l1.319-3.842h0.024
		L118.953,19.419z M121.304,22.67l-3.096-8.592h-1.104l-3.132,8.592h1.2l0.78-2.244h3.336l0.779,2.244H121.304z M114.007,14.114
		h-1.236l-2.1,6.889h-0.037l-2.135-6.889h-1.225l2.76,8.592h1.201L114.007,14.114z M104.695,16.921v2.906
		c0,1.283-0.912,1.944-2.064,1.944c-1.236,0-2.09-0.708-2.09-1.921v-2.833c0-1.309,0.9-2.005,2.041-2.005
		C103.855,15.013,104.695,15.721,104.695,16.921 M105.894,19.743v-2.798c0-1.885-1.439-2.987-3.288-2.987
		c-1.789,0-3.264,1.162-3.264,3.119v2.846c0,1.896,1.462,2.891,3.264,2.891C104.359,22.813,105.894,21.699,105.894,19.743
		 M97.228,22.67v-8.556h-1.103v6.447h-0.036l-4.07-6.447h-1.162v8.544h1.114v-6.542h0.024l4.105,6.554H97.228z M88.527,22.67v-8.556
		h-1.104v6.447h-0.035l-4.07-6.447h-1.163v8.544h1.114v-6.542h0.024L87.4,22.67H88.527z M80.005,22.67v-1.042h-1.837v-6.471h1.837
		v-1.043h-4.859v1.043h1.836v6.471h-1.836v1.042H80.005z"/>
	<path fill="#FFFFFF" d="M81.169,6.253c0-1.272-0.779-1.885-1.691-2.197c-0.301-0.107-1.513-0.455-1.789-0.539
		c-0.684-0.193-1.213-0.529-1.213-1.201c0-0.852,0.793-1.309,1.609-1.309c0.912,0,1.537,0.336,1.921,1.141l1.02-0.432
		C80.57,0.479,79.466,0,78.097,0c-1.572,0-2.808,0.875-2.808,2.436c0,1.093,0.684,1.717,1.511,2.028
		c0.265,0.096,1.441,0.445,1.717,0.517c0.816,0.216,1.453,0.563,1.453,1.393c0,0.997-0.96,1.44-1.873,1.44
		c-1.141,0-1.861-0.624-2.136-1.524l-1.128,0.349c0.359,1.416,1.596,2.207,3.24,2.207C79.791,8.845,81.169,7.897,81.169,6.253"/>
	<polygon fill="#FFFFFF" points="88.695,1.175 88.695,0.144 82.562,0.144 82.562,1.175 85.036,1.175 85.036,8.7 86.234,8.7 
		86.234,1.175 	"/>
	<path fill="#FFFFFF" d="M96.676,5.978V0.144h-1.175v5.785c0,1.272-0.865,1.861-1.969,1.861c-1.178,0-1.994-0.697-1.994-1.873V0.144
		H90.34v5.941c0,1.908,1.487,2.76,3.144,2.76C95.153,8.845,96.676,7.897,96.676,5.978"/>
	<path fill="#FFFFFF" d="M103.962,5.797c0,1.128-0.756,1.86-1.945,1.86h-1.957V1.187h1.886c1.272,0,2.017,0.77,2.017,1.873V5.797z
		 M105.162,5.725V3.048c0-1.849-1.318-2.904-3.107-2.904h-3.169V8.7h3.181C103.771,8.7,105.162,7.609,105.162,5.725"/>
	<polygon fill="#FFFFFF" points="112.747,8.7 112.747,7.657 108.45,7.657 108.45,4.812 112.015,4.812 112.015,3.769 108.45,3.769 
		108.45,1.187 112.722,1.187 112.722,0.144 107.275,0.144 107.275,8.7 	"/>
	<polygon fill="#FFFFFF" points="121.244,8.7 121.244,0.144 120.142,0.144 120.142,6.592 120.105,6.592 116.035,0.144 
		114.873,0.144 114.873,8.688 115.988,8.688 115.988,2.146 116.011,2.146 120.118,8.7 	"/>
	<polygon fill="#FFFFFF" points="129.142,1.175 129.142,0.144 123.009,0.144 123.009,1.175 125.482,1.175 125.482,8.7 126.681,8.7 
		126.681,1.175 	"/>
	<path fill="#FFFFFF" d="M136.751,6.253c0-1.272-0.779-1.885-1.691-2.197c-0.301-0.107-1.514-0.455-1.789-0.539
		c-0.685-0.193-1.213-0.529-1.213-1.201c0-0.852,0.793-1.309,1.609-1.309c0.912,0,1.537,0.336,1.92,1.141l1.02-0.432
		C136.152,0.479,135.048,0,133.679,0c-1.572,0-2.808,0.875-2.808,2.436c0,1.093,0.683,1.717,1.511,2.028
		c0.264,0.096,1.441,0.445,1.717,0.517c0.816,0.216,1.453,0.563,1.453,1.393c0,0.997-0.961,1.44-1.873,1.44
		c-1.141,0-1.861-0.624-2.137-1.524l-1.127,0.349c0.359,1.416,1.595,2.207,3.239,2.207C135.373,8.845,136.751,7.897,136.751,6.253"
		/>
	<polygon fill="#FFFFFF" points="138.618,0.073 138.618,1.61 139.017,1.61 138.678,2.952 139.332,2.952 139.839,1.585 
		139.839,0.073 	"/>
</g>
</svg>
